<svg xmlns="http://www.w3.org/2000/svg" version="1.1" xmlns:xlink="http://www.w3.org/1999/xlink" xmlns:svgjs="http://svgjs.dev/svgjs" width="991" height="345"><line x1="644" y1="284" x2="668" y2="284" stroke="#000000"></line><path d="M 669 273 h297 v34 q 0 10 -10 10 h-277 q -10 0 -10 -10 z" fill="#00ff00" opacity="0.5"></path><path d="M 669 273 v-12 q 0 -10 10 -10 h277 q 10 0 10 10 v12 z" fill="#000000" opacity="1"></path><rect width="297" height="66" rx="10" ry="10" x="669" y="251" fill="transparent" stroke-width="2" stroke="#000000"></rect><line x1="644" y1="171" x2="668" y2="171" stroke="#000000"></line><path d="M 669 138 h297 v78 q 0 10 -10 10 h-277 q -10 0 -10 -10 z" fill="#00ff00" opacity="0.5"></path><path d="M 669 138 v-12 q 0 -10 10 -10 h277 q 10 0 10 10 v12 z" fill="#000000" opacity="1"></path><rect width="297" height="110" rx="10" ry="10" x="669" y="116" fill="transparent" stroke-width="2" stroke="#000000"></rect><line x1="644" y1="58" x2="668" y2="58" stroke="#000000"></line><path d="M 669 47 h297 v34 q 0 10 -10 10 h-277 q -10 0 -10 -10 z" fill="#00ff00" opacity="0.5"></path><path d="M 669 47 v-12 q 0 -10 10 -10 h277 q 10 0 10 10 v12 z" fill="#000000" opacity="1"></path><rect width="297" height="66" rx="10" ry="10" x="669" y="25" fill="transparent" stroke-width="2" stroke="#000000"></rect><path d="M 347 47 h297 v263 q 0 10 -10 10 h-277 q -10 0 -10 -10 z" fill="#000000" opacity="0.5"></path><path d="M 347 47 v-12 q 0 -10 10 -10 h277 q 10 0 10 10 v12 z" fill="#000000" opacity="1"></path><rect width="297" height="295" rx="10" ry="10" x="347" y="25" fill="transparent" stroke-width="2" stroke="#000000"></rect><line x1="322" y1="298" x2="346" y2="298" stroke="#000000"></line><path d="M 25 298 h297 v12 q 0 10 -10 10 h-277 q -10 0 -10 -10 z" fill="#00ff00" opacity="0.5"></path><path d="M 25 298 v-12 q 0 -10 10 -10 h277 q 10 0 10 10 v12 z" fill="#000000" opacity="1"></path><rect width="297" height="44" rx="10" ry="10" x="25" y="276" fill="transparent" stroke-width="2" stroke="#000000"></rect><line x1="322" y1="229" x2="346" y2="229" stroke="#000000"></line><path d="M 25 229 h297 v12 q 0 10 -10 10 h-277 q -10 0 -10 -10 z" fill="#00ff00" opacity="0.5"></path><path d="M 25 229 v-12 q 0 -10 10 -10 h277 q 10 0 10 10 v12 z" fill="#000000" opacity="1"></path><rect width="297" height="44" rx="10" ry="10" x="25" y="207" fill="transparent" stroke-width="2" stroke="#000000"></rect><line x1="322" y1="149" x2="346" y2="149" stroke="#000000"></line><path d="M 25 138 h297 v34 q 0 10 -10 10 h-277 q -10 0 -10 -10 z" fill="#00ff00" opacity="0.5"></path><path d="M 25 138 v-12 q 0 -10 10 -10 h277 q 10 0 10 10 v12 z" fill="#000000" opacity="1"></path><rect width="297" height="66" rx="10" ry="10" x="25" y="116" fill="transparent" stroke-width="2" stroke="#000000"></rect><line x1="322" y1="58" x2="346" y2="58" stroke="#000000"></line><path d="M 25 47 h297 v34 q 0 10 -10 10 h-277 q -10 0 -10 -10 z" fill="#00ff00" opacity="0.5"></path><path d="M 25 47 v-12 q 0 -10 10 -10 h277 q 10 0 10 10 v12 z" fill="#000000" opacity="1"></path><rect width="297" height="66" rx="10" ry="10" x="25" y="25" fill="transparent" stroke-width="2" stroke="#000000"></rect><style>text { font-family: monospace;}</style><text x="29" y="42.1" fill="#ffffff">/src/objects/core</text><polygon points="346,58 341,64 341,52" fill="white" stroke-width="1" stroke="#000000"></polygon><text x="29" y="64.1">CLAS ZCL_ABAPGIT_FILE_DESERIALIZE</text><text x="29" y="86.1">CLAS ZCL_ABAPGIT_SERIALIZE</text><text x="29" y="133.1" fill="#ffffff">/src/repo</text><polygon points="346,149 341,155 341,143" fill="white" stroke-width="1" stroke="#000000"></polygon><text x="29" y="155.1">CLAS ZCL_ABAPGIT_DOT_ABAPGIT</text><text x="29" y="177.1">CLAS ZCL_ABAPGIT_REPO</text><text x="29" y="224.1" fill="#ffffff">/src/ui/pages</text><polygon points="346,229 341,235 341,223" fill="white" stroke-width="1" stroke="#000000"></polygon><text x="29" y="246.1">CLAS ZCL_ABAPGIT_GUI_PAGE_DATA</text><text x="29" y="293.1" fill="#ffffff">/src/ui/routing</text><polygon points="346,298 341,304 341,292" fill="white" stroke-width="1" stroke="#000000"></polygon><text x="29" y="315.1">CLAS ZCL_ABAPGIT_GUI_ROUTER</text><text x="351" y="42.1" fill="#ffffff">/src/data</text><text x="673" y="42.1" fill="#ffffff">/src</text><polygon points="668,58 663,64 663,52" fill="white" stroke-width="1" stroke="#000000"></polygon><text x="673" y="64.1">CLAS ZCX_ABAPGIT_EXCEPTION</text><text x="673" y="86.1">INTF ZIF_ABAPGIT_DEFINITIONS</text><text x="673" y="133.1" fill="#ffffff">/src/json</text><polygon points="668,171 663,177 663,165" fill="white" stroke-width="1" stroke="#000000"></polygon><text x="673" y="155.1">CLAS ZCL_ABAPGIT_AJSON</text><text x="673" y="177.1">CLAS ZCX_ABAPGIT_AJSON_ERROR</text><text x="673" y="199.1">INTF ZIF_ABAPGIT_AJSON</text><text x="673" y="221.1">CLAS ZCL_ABAPGIT_AJSON_FILTER_LIB</text><text x="673" y="268.1" fill="#ffffff">/src/utils</text><polygon points="668,284 663,290 663,278" fill="white" stroke-width="1" stroke="#000000"></polygon><text x="673" y="290.1">CLAS ZCL_ABAPGIT_CONVERT</text><text x="673" y="312.1">CLAS ZCL_ABAPGIT_HASH</text><text x="25" y="340.1" fill="#000000" opacity="0.2">f009ec0 - 2023-01-06T22:48:28.364Z - abaplint.app</text></svg>